<svg width="142" height="142" viewBox="0 0 142 142" fill="none" xmlns="http://www.w3.org/2000/svg">
<path d="M7.01287 0.277344H0.277344V7.01287H7.01287V0.277344Z" fill="black"/>
<path d="M13.7484 0.277344H7.01287V7.01287H13.7484V0.277344Z" fill="black"/>
<path d="M20.4839 0.277344H13.7484V7.01287H20.4839V0.277344Z" fill="black"/>
<path d="M27.2194 0.277344H20.4839V7.01287H27.2194V0.277344Z" fill="black"/>
<path d="M33.955 0.277344H27.2194V7.01287H33.955V0.277344Z" fill="black"/>
<path d="M40.6905 0.277344H33.955V7.01287H40.6905V0.277344Z" fill="black"/>
<path d="M47.426 0.277344H40.6905V7.01287H47.426V0.277344Z" fill="black"/>
<path d="M60.8971 0.277344H54.1616V7.01287H60.8971V0.277344Z" fill="black"/>
<path d="M101.31 0.277344H94.5747V7.01287H101.31V0.277344Z" fill="black"/>
<path d="M108.046 0.277344H101.31V7.01287H108.046V0.277344Z" fill="black"/>
<path d="M114.781 0.277344H108.046V7.01287H114.781V0.277344Z" fill="black"/>
<path d="M121.517 0.277344H114.781V7.01287H121.517V0.277344Z" fill="black"/>
<path d="M128.252 0.277344H121.517V7.01287H128.252V0.277344Z" fill="black"/>
<path d="M134.988 0.277344H128.252V7.01287H134.988V0.277344Z" fill="black"/>
<path d="M141.723 0.277344H134.988V7.01287H141.723V0.277344Z" fill="black"/>
<path d="M7.01287 7.01287H0.277344V13.7484H7.01287V7.01287Z" fill="black"/>
<path d="M47.426 7.01287H40.6905V13.7484H47.426V7.01287Z" fill="black"/>
<path d="M67.6326 7.01287H60.8971L60.8971 13.7484H67.6326V7.01287Z" fill="black"/>
<path d="M101.31 7.01287H94.5747V13.7484H101.31V7.01287Z" fill="black"/>
<path d="M141.723 7.01287H134.988V13.7484H141.723V7.01287Z" fill="black"/>
<path d="M7.01287 13.7484H0.277344V20.4839H7.01287V13.7484Z" fill="black"/>
<path d="M20.4839 13.7484H13.7484V20.4839H20.4839V13.7484Z" fill="black"/>
<path d="M27.2194 13.7484H20.4839V20.4839H27.2194V13.7484Z" fill="black"/>
<path d="M33.955 13.7484H27.2194V20.4839H33.955V13.7484Z" fill="black"/>
<path d="M47.426 13.7484H40.6905V20.4839H47.426V13.7484Z" fill="black"/>
<path d="M81.1037 13.7484H74.3681V20.4839H81.1037V13.7484Z" fill="black"/>
<path d="M87.8392 13.7484H81.1037V20.4839H87.8392V13.7484Z" fill="black"/>
<path d="M101.31 13.7484H94.5747V20.4839H101.31V13.7484Z" fill="black"/>
<path d="M114.781 13.7484H108.046V20.4839H114.781V13.7484Z" fill="black"/>
<path d="M121.517 13.7484H114.781V20.4839H121.517V13.7484Z" fill="black"/>
<path d="M128.252 13.7484H121.517V20.4839H128.252V13.7484Z" fill="black"/>
<path d="M141.723 13.7484H134.988V20.4839H141.723V13.7484Z" fill="black"/>
<path d="M7.01287 20.4839H0.277344V27.2194H7.01287V20.4839Z" fill="black"/>
<path d="M20.4839 20.4839H13.7484V27.2194H20.4839V20.4839Z" fill="black"/>
<path d="M27.2194 20.4839H20.4839V27.2194H27.2194V20.4839Z" fill="black"/>
<path d="M33.955 20.4839H27.2194V27.2194H33.955V20.4839Z" fill="black"/>
<path d="M47.426 20.4839H40.6905V27.2194H47.426V20.4839Z" fill="black"/>
<path d="M67.6326 20.4839H60.8971V27.2194H67.6326V20.4839Z" fill="black"/>
<path d="M101.31 20.4839H94.5747V27.2194H101.31V20.4839Z" fill="black"/>
<path d="M114.781 20.4839H108.046V27.2194H114.781V20.4839Z" fill="black"/>
<path d="M121.517 20.4839H114.781V27.2194H121.517V20.4839Z" fill="black"/>
<path d="M128.252 20.4839H121.517V27.2194H128.252V20.4839Z" fill="black"/>
<path d="M141.723 20.4839H134.988V27.2194H141.723V20.4839Z" fill="black"/>
<path d="M7.01287 27.2194H0.277344V33.955H7.01287V27.2194Z" fill="black"/>
<path d="M20.4839 27.2194H13.7484V33.955H20.4839V27.2194Z" fill="black"/>
<path d="M27.2194 27.2194H20.4839V33.955H27.2194V27.2194Z" fill="black"/>
<path d="M33.955 27.2194H27.2194V33.955H33.955V27.2194Z" fill="black"/>
<path d="M47.426 27.2194H40.6905V33.955H47.426V27.2194Z" fill="black"/>
<path d="M60.8971 27.2194H54.1616V33.955H60.8971L60.8971 27.2194Z" fill="black"/>
<path d="M67.6326 27.2194H60.8971L60.8971 33.955H67.6326V27.2194Z" fill="black"/>
<path d="M81.1037 27.2194H74.3681V33.955H81.1037V27.2194Z" fill="black"/>
<path d="M101.31 27.2194H94.5747V33.955H101.31V27.2194Z" fill="black"/>
<path d="M114.781 27.2194H108.046V33.955H114.781V27.2194Z" fill="black"/>
<path d="M121.517 27.2194H114.781V33.955H121.517V27.2194Z" fill="black"/>
<path d="M128.252 27.2194H121.517V33.955H128.252V27.2194Z" fill="black"/>
<path d="M141.723 27.2194H134.988V33.955H141.723V27.2194Z" fill="black"/>
<path d="M7.01287 33.955H0.277344V40.6905H7.01287V33.955Z" fill="black"/>
<path d="M47.426 33.955H40.6905V40.6905H47.426V33.955Z" fill="black"/>
<path d="M81.1037 33.955H74.3681V40.6905H81.1037V33.955Z" fill="black"/>
<path d="M101.31 33.955H94.5747V40.6905H101.31V33.955Z" fill="black"/>
<path d="M141.723 33.955H134.988V40.6905H141.723V33.955Z" fill="black"/>
<path d="M7.01287 40.6905H0.277344V47.426H7.01287V40.6905Z" fill="black"/>
<path d="M13.7484 40.6905H7.01287V47.426H13.7484V40.6905Z" fill="black"/>
<path d="M20.4839 40.6905H13.7484V47.426H20.4839V40.6905Z" fill="black"/>
<path d="M27.2194 40.6905H20.4839V47.426H27.2194V40.6905Z" fill="black"/>
<path d="M33.955 40.6905H27.2194V47.426H33.955V40.6905Z" fill="black"/>
<path d="M40.6905 40.6905H33.955V47.426H40.6905V40.6905Z" fill="black"/>
<path d="M47.426 40.6905H40.6905V47.426H47.426V40.6905Z" fill="black"/>
<path d="M60.8971 40.6905H54.1616V47.426H60.8971V40.6905Z" fill="black"/>
<path d="M74.3681 40.6905H67.6326V47.426H74.3681L74.3681 40.6905Z" fill="black"/>
<path d="M87.8392 40.6905H81.1037V47.426H87.8392V40.6905Z" fill="black"/>
<path d="M101.31 40.6905H94.5747V47.426H101.31V40.6905Z" fill="black"/>
<path d="M108.046 40.6905H101.31V47.426H108.046V40.6905Z" fill="black"/>
<path d="M114.781 40.6905H108.046V47.426H114.781V40.6905Z" fill="black"/>
<path d="M121.517 40.6905H114.781V47.426H121.517V40.6905Z" fill="black"/>
<path d="M128.252 40.6905H121.517V47.426H128.252V40.6905Z" fill="black"/>
<path d="M134.988 40.6905H128.252V47.426H134.988V40.6905Z" fill="black"/>
<path d="M141.723 40.6905H134.988V47.426H141.723V40.6905Z" fill="black"/>
<path d="M60.8971 47.426H54.1616V54.1616H60.8971V47.426Z" fill="black"/>
<path d="M67.6326 47.426H60.8971V54.1616H67.6326L67.6326 47.426Z" fill="black"/>
<path d="M74.3681 47.426H67.6326L67.6326 54.1616H74.3681V47.426Z" fill="black"/>
<path d="M87.8392 47.426H81.1037V54.1616H87.8392V47.426Z" fill="black"/>
<path d="M7.01287 54.1616H0.277344V60.8971H7.01287V54.1616Z" fill="black"/>
<path d="M27.2194 54.1616H20.4839V60.8971H27.2194V54.1616Z" fill="black"/>
<path d="M33.955 54.1616H27.2194V60.8971H33.955V54.1616Z" fill="black"/>
<path d="M40.6905 54.1616H33.955V60.8971H40.6905V54.1616Z" fill="black"/>
<path d="M47.426 54.1616H40.6905V60.8971H47.426V54.1616Z" fill="black"/>
<path d="M54.1616 54.1616L47.426 54.1616V60.8971H54.1616L54.1616 54.1616Z" fill="black"/>
<path d="M60.8971 54.1616H54.1616L54.1616 60.8971H60.8971V54.1616Z" fill="black"/>
<path d="M87.8392 54.1616H81.1037V60.8971H87.8392V54.1616Z" fill="black"/>
<path d="M94.5747 54.1616L87.8392 54.1616V60.8971H94.5747V54.1616Z" fill="black"/>
<path d="M101.31 54.1616H94.5747V60.8971H101.31V54.1616Z" fill="black"/>
<path d="M114.781 54.1616H108.046V60.8971H114.781V54.1616Z" fill="black"/>
<path d="M141.723 54.1616H134.988V60.8971H141.723V54.1616Z" fill="black"/>
<path d="M20.4839 60.8971L13.7484 60.8971V67.6326H20.4839V60.8971Z" fill="black"/>
<path d="M40.6905 60.8971H33.955V67.6326H40.6905V60.8971Z" fill="black"/>
<path d="M54.1616 60.8971H47.426V67.6326H54.1616V60.8971Z" fill="black"/>
<path d="M81.1037 60.8971L74.3681 60.8971V67.6326H81.1037V60.8971Z" fill="black"/>
<path d="M87.8392 60.8971H81.1037V67.6326H87.8392V60.8971Z" fill="black"/>
<path d="M101.31 60.8971H94.5747V67.6326H101.31V60.8971Z" fill="black"/>
<path d="M108.046 60.8971H101.31V67.6326H108.046V60.8971Z" fill="black"/>
<path d="M121.517 60.8971L114.781 60.8971V67.6326H121.517V60.8971Z" fill="black"/>
<path d="M20.4839 67.6326H13.7484V74.3681H20.4839V67.6326Z" fill="black"/>
<path d="M47.426 67.6326H40.6905V74.3681H47.426V67.6326Z" fill="black"/>
<path d="M60.8971 67.6326L54.1616 67.6326L54.1616 74.3681H60.8971V67.6326Z" fill="black"/>
<path d="M81.1037 67.6326H74.3681V74.3681H81.1037V67.6326Z" fill="black"/>
<path d="M94.5747 67.6326H87.8392V74.3681H94.5747V67.6326Z" fill="black"/>
<path d="M121.517 67.6326H114.781V74.3681H121.517V67.6326Z" fill="black"/>
<path d="M134.988 67.6326H128.252V74.3681H134.988V67.6326Z" fill="black"/>
<path d="M7.01287 74.3681H0.277344V81.1037H7.01287V74.3681Z" fill="black"/>
<path d="M20.4839 74.3681H13.7484V81.1037H20.4839V74.3681Z" fill="black"/>
<path d="M40.6905 74.3681L33.955 74.3681V81.1037H40.6905V74.3681Z" fill="black"/>
<path d="M54.1616 74.3681H47.426V81.1037H54.1616L54.1616 74.3681Z" fill="black"/>
<path d="M60.8971 74.3681H54.1616L54.1616 81.1037H60.8971V74.3681Z" fill="black"/>
<path d="M67.6326 74.3681L60.8971 74.3681V81.1037H67.6326V74.3681Z" fill="black"/>
<path d="M74.3681 74.3681L67.6326 74.3681V81.1037H74.3681L74.3681 74.3681Z" fill="black"/>
<path d="M108.046 74.3681H101.31V81.1037H108.046V74.3681Z" fill="black"/>
<path d="M114.781 74.3681L108.046 74.3681V81.1037H114.781V74.3681Z" fill="black"/>
<path d="M121.517 74.3681H114.781V81.1037H121.517V74.3681Z" fill="black"/>
<path d="M128.252 74.3681H121.517V81.1037H128.252V74.3681Z" fill="black"/>
<path d="M7.01287 81.1037H0.277344V87.8392H7.01287V81.1037Z" fill="black"/>
<path d="M13.7484 81.1037H7.01287V87.8392H13.7484V81.1037Z" fill="black"/>
<path d="M27.2194 81.1037H20.4839V87.8392H27.2194V81.1037Z" fill="black"/>
<path d="M33.955 81.1037H27.2194V87.8392H33.955V81.1037Z" fill="black"/>
<path d="M47.426 81.1037H40.6905V87.8392H47.426V81.1037Z" fill="black"/>
<path d="M54.1616 81.1037H47.426V87.8392H54.1616V81.1037Z" fill="black"/>
<path d="M67.6326 81.1037H60.8971L60.8971 87.8392H67.6326V81.1037Z" fill="black"/>
<path d="M87.8392 81.1037H81.1037V87.8392H87.8392V81.1037Z" fill="black"/>
<path d="M94.5747 81.1037H87.8392V87.8392H94.5747V81.1037Z" fill="black"/>
<path d="M101.31 81.1037H94.5747V87.8392H101.31V81.1037Z" fill="black"/>
<path d="M108.046 81.1037H101.31V87.8392H108.046V81.1037Z" fill="black"/>
<path d="M121.517 81.1037H114.781V87.8392H121.517V81.1037Z" fill="black"/>
<path d="M141.723 81.1037H134.988V87.8392H141.723V81.1037Z" fill="black"/>
<path d="M60.8971 87.8392H54.1616L54.1616 94.5747H60.8971L60.8971 87.8392Z" fill="black"/>
<path d="M67.6326 87.8392H60.8971L60.8971 94.5747H67.6326V87.8392Z" fill="black"/>
<path d="M81.1037 87.8392H74.3681V94.5747H81.1037V87.8392Z" fill="black"/>
<path d="M94.5747 87.8392H87.8392V94.5747H94.5747V87.8392Z" fill="black"/>
<path d="M114.781 87.8392H108.046V94.5747H114.781V87.8392Z" fill="black"/>
<path d="M134.988 87.8392H128.252V94.5747H134.988V87.8392Z" fill="black"/>
<path d="M141.723 87.8392H134.988V94.5747H141.723V87.8392Z" fill="black"/>
<path d="M7.01287 94.5747H0.277344V101.31H7.01287V94.5747Z" fill="black"/>
<path d="M13.7484 94.5747H7.01287V101.31H13.7484V94.5747Z" fill="black"/>
<path d="M20.4839 94.5747H13.7484V101.31H20.4839V94.5747Z" fill="black"/>
<path d="M27.2194 94.5747H20.4839V101.31H27.2194V94.5747Z" fill="black"/>
<path d="M33.955 94.5747H27.2194V101.31H33.955V94.5747Z" fill="black"/>
<path d="M40.6905 94.5747H33.955V101.31H40.6905V94.5747Z" fill="black"/>
<path d="M47.426 94.5747H40.6905V101.31H47.426V94.5747Z" fill="black"/>
<path d="M60.8971 94.5747H54.1616V101.31H60.8971V94.5747Z" fill="black"/>
<path d="M114.781 94.5747H108.046V101.31H114.781V94.5747Z" fill="black"/>
<path d="M128.252 94.5747H121.517V101.31H128.252V94.5747Z" fill="black"/>
<path d="M134.988 94.5747H128.252V101.31H134.988V94.5747Z" fill="black"/>
<path d="M141.723 94.5747H134.988V101.31H141.723V94.5747Z" fill="black"/>
<path d="M7.01287 101.31H0.277344V108.046H7.01287V101.31Z" fill="black"/>
<path d="M47.426 101.31H40.6905V108.046H47.426V101.31Z" fill="black"/>
<path d="M60.8971 101.31H54.1616V108.046H60.8971V101.31Z" fill="black"/>
<path d="M67.6326 101.31H60.8971V108.046H67.6326V101.31Z" fill="black"/>
<path d="M81.1037 101.31H74.3681V108.046H81.1037V101.31Z" fill="black"/>
<path d="M94.5747 101.31H87.8392V108.046H94.5747V101.31Z" fill="black"/>
<path d="M108.046 101.31H101.31V108.046H108.046V101.31Z" fill="black"/>
<path d="M121.517 101.31H114.781V108.046H121.517V101.31Z" fill="black"/>
<path d="M134.988 101.31H128.252V108.046H134.988V101.31Z" fill="black"/>
<path d="M7.01287 108.046H0.277344V114.781H7.01287V108.046Z" fill="black"/>
<path d="M20.4839 108.046H13.7484V114.781H20.4839V108.046Z" fill="black"/>
<path d="M27.2194 108.046H20.4839V114.781H27.2194V108.046Z" fill="black"/>
<path d="M33.955 108.046H27.2194V114.781H33.955V108.046Z" fill="black"/>
<path d="M47.426 108.046H40.6905V114.781H47.426V108.046Z" fill="black"/>
<path d="M60.8971 108.046H54.1616V114.781H60.8971V108.046Z" fill="black"/>
<path d="M67.6326 108.046H60.8971V114.781H67.6326V108.046Z" fill="black"/>
<path d="M74.3681 108.046H67.6326V114.781H74.3681L74.3681 108.046Z" fill="black"/>
<path d="M81.1037 108.046H74.3681L74.3681 114.781H81.1037V108.046Z" fill="black"/>
<path d="M87.8392 108.046H81.1037V114.781H87.8392V108.046Z" fill="black"/>
<path d="M94.5747 108.046H87.8392V114.781H94.5747V108.046Z" fill="black"/>
<path d="M101.31 108.046H94.5747V114.781H101.31V108.046Z" fill="black"/>
<path d="M108.046 108.046H101.31V114.781H108.046V108.046Z" fill="black"/>
<path d="M114.781 108.046H108.046V114.781H114.781V108.046Z" fill="black"/>
<path d="M121.517 108.046H114.781V114.781H121.517V108.046Z" fill="black"/>
<path d="M128.252 108.046H121.517V114.781H128.252V108.046Z" fill="black"/>
<path d="M134.988 108.046H128.252V114.781H134.988V108.046Z" fill="black"/>
<path d="M141.723 108.046H134.988V114.781H141.723V108.046Z" fill="black"/>
<path d="M7.01287 114.781H0.277344V121.517H7.01287V114.781Z" fill="black"/>
<path d="M20.4839 114.781H13.7484V121.517H20.4839V114.781Z" fill="black"/>
<path d="M27.2194 114.781H20.4839V121.517H27.2194V114.781Z" fill="black"/>
<path d="M33.955 114.781H27.2194V121.517H33.955V114.781Z" fill="black"/>
<path d="M47.426 114.781H40.6905V121.517H47.426V114.781Z" fill="black"/>
<path d="M60.8971 114.781H54.1616V121.517H60.8971V114.781Z" fill="black"/>
<path d="M74.3681 114.781H67.6326L67.6326 121.517H74.3681V114.781Z" fill="black"/>
<path d="M87.8392 114.781H81.1037V121.517H87.8392V114.781Z" fill="black"/>
<path d="M101.31 114.781H94.5747V121.517H101.31V114.781Z" fill="black"/>
<path d="M114.781 114.781H108.046V121.517H114.781V114.781Z" fill="black"/>
<path d="M141.723 114.781H134.988V121.517H141.723V114.781Z" fill="black"/>
<path d="M7.01287 121.517H0.277344V128.252H7.01287V121.517Z" fill="black"/>
<path d="M20.4839 121.517H13.7484V128.252H20.4839V121.517Z" fill="black"/>
<path d="M27.2194 121.517H20.4839V128.252H27.2194V121.517Z" fill="black"/>
<path d="M33.955 121.517H27.2194V128.252H33.955V121.517Z" fill="black"/>
<path d="M47.426 121.517H40.6905V128.252H47.426V121.517Z" fill="black"/>
<path d="M121.517 121.517H114.781V128.252H121.517V121.517Z" fill="black"/>
<path d="M128.252 121.517H121.517V128.252H128.252V121.517Z" fill="black"/>
<path d="M7.01287 128.252H0.277344V134.988H7.01287V128.252Z" fill="black"/>
<path d="M47.426 128.252H40.6905V134.988H47.426V128.252Z" fill="black"/>
<path d="M74.3681 128.252H67.6326V134.988H74.3681V128.252Z" fill="black"/>
<path d="M81.1037 128.252H74.3681V134.988H81.1037V128.252Z" fill="black"/>
<path d="M87.8392 128.252H81.1037V134.988H87.8392V128.252Z" fill="black"/>
<path d="M101.31 128.252H94.5747V134.988H101.31V128.252Z" fill="black"/>
<path d="M108.046 128.252H101.31V134.988H108.046V128.252Z" fill="black"/>
<path d="M114.781 128.252H108.046V134.988H114.781V128.252Z" fill="black"/>
<path d="M121.517 128.252H114.781V134.988H121.517V128.252Z" fill="black"/>
<path d="M7.01287 134.988H0.277344V141.723H7.01287V134.988Z" fill="black"/>
<path d="M13.7484 134.988H7.01287V141.723H13.7484V134.988Z" fill="black"/>
<path d="M20.4839 134.988H13.7484V141.723H20.4839V134.988Z" fill="black"/>
<path d="M27.2194 134.988H20.4839V141.723H27.2194V134.988Z" fill="black"/>
<path d="M33.955 134.988H27.2194V141.723H33.955V134.988Z" fill="black"/>
<path d="M40.6905 134.988H33.955V141.723H40.6905V134.988Z" fill="black"/>
<path d="M47.426 134.988H40.6905V141.723H47.426V134.988Z" fill="black"/>
<path d="M60.8971 134.988H54.1616V141.723H60.8971V134.988Z" fill="black"/>
<path d="M81.1037 134.988H74.3681L74.3681 141.723H81.1037V134.988Z" fill="black"/>
<path d="M87.8392 134.988H81.1037V141.723H87.8392V134.988Z" fill="black"/>
<path d="M121.517 134.988H114.781V141.723H121.517V134.988Z" fill="black"/>
<path d="M141.723 134.988H134.988V141.723H141.723V134.988Z" fill="black"/>
</svg>
